<svg width="109" height="48" viewBox="0 0 109 48" fill="none" xmlns="http://www.w3.org/2000/svg">
<rect width="109" height="48" rx="24" fill="#10B981"/>
<path d="M20.452 29.14C19.5467 29.14 18.7673 28.9767 18.114 28.65C17.47 28.314 16.9193 27.8333 16.462 27.208L17.736 25.766C18.1933 26.4007 18.646 26.8347 19.094 27.068C19.542 27.292 20.0367 27.404 20.578 27.404C21.0167 27.404 21.3853 27.3107 21.684 27.124C21.992 26.9373 22.146 26.6853 22.146 26.368C22.146 25.9853 21.95 25.6867 21.558 25.472C21.1753 25.248 20.6807 25.0753 20.074 24.954C19.0193 24.73 18.2353 24.3707 17.722 23.876C17.2087 23.3813 16.952 22.7233 16.952 21.902C16.952 21.3327 17.1153 20.8333 17.442 20.404C17.7687 19.9653 18.198 19.6247 18.73 19.382C19.2713 19.1393 19.8687 19.018 20.522 19.018C21.39 19.018 22.1087 19.1673 22.678 19.466C23.2567 19.7553 23.714 20.1707 24.05 20.712L22.748 21.986C22.1693 21.1647 21.432 20.754 20.536 20.754C20.0693 20.754 19.6913 20.852 19.402 21.048C19.122 21.2347 18.982 21.4913 18.982 21.818C18.982 22.1633 19.1453 22.434 19.472 22.63C19.808 22.826 20.256 22.98 20.816 23.092C21.8427 23.3067 22.6547 23.652 23.252 24.128C23.8587 24.5947 24.162 25.2247 24.162 26.018C24.162 26.6713 24.0033 27.2313 23.686 27.698C23.378 28.1647 22.944 28.524 22.384 28.776C21.8333 29.0187 21.1893 29.14 20.452 29.14ZM29.3124 29.14C28.519 29.14 27.8237 28.9767 27.2264 28.65C26.629 28.3233 26.1624 27.8753 25.8264 27.306C25.4997 26.7367 25.3364 26.0833 25.3364 25.346C25.3364 24.5807 25.495 23.9087 25.8124 23.33C26.139 22.742 26.5824 22.28 27.1424 21.944C27.7117 21.608 28.365 21.44 29.1024 21.44C29.765 21.44 30.3577 21.6033 30.8804 21.93C31.4124 22.2473 31.823 22.6813 32.1124 23.232C32.411 23.7827 32.551 24.4127 32.5324 25.122L32.5184 25.724H27.1984C27.301 26.256 27.553 26.676 27.9544 26.984C28.365 27.292 28.883 27.446 29.5084 27.446C29.8444 27.446 30.1477 27.3947 30.4184 27.292C30.6984 27.1893 30.997 27.0073 31.3144 26.746L32.2384 28.034C31.837 28.3887 31.375 28.664 30.8524 28.86C30.339 29.0467 29.8257 29.14 29.3124 29.14ZM29.1164 23.092C28.0617 23.092 27.427 23.568 27.2124 24.52H30.7124V24.464C30.6844 24.0627 30.5164 23.736 30.2084 23.484C29.9097 23.2227 29.5457 23.092 29.1164 23.092ZM36.8015 29.14C36.1855 29.14 35.6302 28.972 35.1355 28.636C34.6408 28.3 34.2442 27.8427 33.9455 27.264C33.6562 26.6853 33.5115 26.0273 33.5115 25.29C33.5115 24.534 33.6562 23.8713 33.9455 23.302C34.2442 22.7233 34.6455 22.2707 35.1495 21.944C35.6628 21.6173 36.2415 21.454 36.8855 21.454C37.4082 21.454 37.8655 21.5613 38.2575 21.776C38.6495 21.9813 38.9622 22.252 39.1955 22.588V21.608H41.0995V29H39.1815V28.006C38.9202 28.3327 38.5795 28.6033 38.1595 28.818C37.7488 29.0327 37.2962 29.14 36.8015 29.14ZM37.3195 27.474C37.8888 27.474 38.3508 27.2733 38.7055 26.872C39.0602 26.4707 39.2375 25.9433 39.2375 25.29C39.2375 24.6367 39.0602 24.1093 38.7055 23.708C38.3508 23.3067 37.8888 23.106 37.3195 23.106C36.7595 23.106 36.3022 23.3067 35.9475 23.708C35.6022 24.1093 35.4295 24.6367 35.4295 25.29C35.4295 25.9433 35.6022 26.4707 35.9475 26.872C36.3022 27.2733 36.7595 27.474 37.3195 27.474ZM43.0936 29V21.608H44.9416L44.9696 22.826C45.2123 22.4247 45.5296 22.098 45.9216 21.846C46.3229 21.5847 46.7429 21.454 47.1816 21.454C47.3496 21.454 47.5036 21.468 47.6436 21.496C47.7929 21.5147 47.9189 21.5427 48.0216 21.58L47.5036 23.68C47.4009 23.624 47.2703 23.5773 47.1116 23.54C46.9529 23.5027 46.7943 23.484 46.6356 23.484C46.1783 23.484 45.7909 23.6427 45.4736 23.96C45.1656 24.268 45.0116 24.66 45.0116 25.136V29H43.0936ZM52.0418 29.14C51.3418 29.14 50.7118 28.972 50.1518 28.636C49.6011 28.3 49.1625 27.8427 48.8358 27.264C48.5185 26.6853 48.3598 26.0273 48.3598 25.29C48.3598 24.562 48.5185 23.9087 48.8358 23.33C49.1625 22.7513 49.6011 22.294 50.1518 21.958C50.7118 21.622 51.3418 21.454 52.0418 21.454C52.7045 21.454 53.3065 21.5753 53.8478 21.818C54.3985 22.0607 54.8278 22.4013 55.1358 22.84L54.0858 24.1C53.8898 23.8293 53.6191 23.6007 53.2738 23.414C52.9285 23.218 52.5785 23.12 52.2238 23.12C51.8318 23.12 51.4818 23.218 51.1738 23.414C50.8751 23.6007 50.6371 23.8573 50.4598 24.184C50.2918 24.5107 50.2078 24.8793 50.2078 25.29C50.2078 25.7007 50.2965 26.0693 50.4738 26.396C50.6511 26.7227 50.8938 26.984 51.2018 27.18C51.5098 27.3667 51.8551 27.46 52.2378 27.46C52.6018 27.46 52.9378 27.3807 53.2458 27.222C53.5538 27.054 53.8338 26.8207 54.0858 26.522L55.1358 27.782C54.8185 28.1927 54.3798 28.524 53.8198 28.776C53.2598 29.0187 52.6671 29.14 52.0418 29.14ZM56.41 29V18.64H58.3V22.574C58.552 22.2473 58.8833 21.9813 59.294 21.776C59.714 21.5613 60.1527 21.454 60.61 21.454C62.3087 21.454 63.158 22.462 63.158 24.478V29H61.254V24.618C61.254 23.5633 60.8107 23.0547 59.924 23.092C59.4667 23.092 59.084 23.232 58.776 23.512C58.4773 23.792 58.328 24.1373 58.328 24.548V29H56.41Z" fill="white"/>
<path d="M78.9934 17.0018C78.7617 17.0013 78.5371 17.0825 78.3587 17.2313C78.2583 17.3151 78.1753 17.4179 78.1145 17.534C78.0536 17.6501 78.0162 17.7771 78.0042 17.9078C77.9922 18.0385 78.006 18.1703 78.0447 18.2956C78.0834 18.4209 78.1463 18.5374 78.2298 18.6382L82.6722 23.9863L78.3885 29.3444C78.3061 29.4465 78.2446 29.5639 78.2075 29.69C78.1704 29.8161 78.1584 29.9482 78.1722 30.079C78.186 30.2097 78.2254 30.3364 78.288 30.4518C78.3507 30.5672 78.4353 30.669 78.5372 30.7513C78.6398 30.8421 78.76 30.9107 78.8901 30.9526C79.0203 30.9945 79.1576 31.0088 79.2936 30.9948C79.4295 30.9807 79.5611 30.9385 79.6801 30.8709C79.7991 30.8032 79.9029 30.7116 79.985 30.6016L84.7744 24.6149C84.9203 24.4364 85 24.2124 85 23.9813C85 23.7502 84.9203 23.5263 84.7744 23.3477L79.8164 17.361C79.7169 17.2403 79.5905 17.1448 79.4475 17.0824C79.3045 17.02 79.1489 16.9924 78.9934 17.0018Z" fill="white"/>
</svg>
