<svg width="58" height="16" viewBox="0 0 58 16" fill="none" xmlns="http://www.w3.org/2000/svg">
<path d="M4.452 12.14C3.54667 12.14 2.76733 11.9767 2.114 11.65C1.47 11.314 0.919333 10.8333 0.462 10.208L1.736 8.766C2.19333 9.40067 2.646 9.83467 3.094 10.068C3.542 10.292 4.03667 10.404 4.578 10.404C5.01667 10.404 5.38533 10.3107 5.684 10.124C5.992 9.93733 6.146 9.68533 6.146 9.368C6.146 8.98533 5.95 8.68667 5.558 8.472C5.17533 8.248 4.68067 8.07533 4.074 7.954C3.01933 7.73 2.23533 7.37067 1.722 6.876C1.20867 6.38133 0.952 5.72333 0.952 4.902C0.952 4.33267 1.11533 3.83333 1.442 3.404C1.76867 2.96533 2.198 2.62467 2.73 2.382C3.27133 2.13933 3.86867 2.018 4.522 2.018C5.39 2.018 6.10867 2.16733 6.678 2.466C7.25667 2.75533 7.714 3.17067 8.05 3.712L6.748 4.986C6.16933 4.16467 5.432 3.754 4.536 3.754C4.06933 3.754 3.69133 3.852 3.402 4.048C3.122 4.23467 2.982 4.49133 2.982 4.818C2.982 5.16333 3.14533 5.434 3.472 5.63C3.808 5.826 4.256 5.98 4.816 6.092C5.84267 6.30667 6.65467 6.652 7.252 7.128C7.85867 7.59467 8.162 8.22467 8.162 9.018C8.162 9.67133 8.00333 10.2313 7.686 10.698C7.378 11.1647 6.944 11.524 6.384 11.776C5.83333 12.0187 5.18933 12.14 4.452 12.14ZM10.9744 3.068C10.601 3.068 10.307 2.97467 10.0924 2.788C9.88703 2.60133 9.78436 2.34467 9.78436 2.018C9.78436 1.70067 9.88703 1.444 10.0924 1.248C10.307 1.052 10.601 0.954 10.9744 0.954C11.3477 0.954 11.637 1.04733 11.8424 1.234C12.0477 1.42067 12.1504 1.682 12.1504 2.018C12.1504 2.326 12.043 2.578 11.8284 2.774C11.623 2.97 11.3384 3.068 10.9744 3.068ZM10.0224 12V4.608H11.9404V12H10.0224ZM17.438 15.22C16.8687 15.22 16.2993 15.1313 15.73 14.954C15.17 14.786 14.7127 14.5667 14.358 14.296L15.03 12.91C15.3193 13.1247 15.66 13.2927 16.052 13.414C16.4533 13.5353 16.8593 13.596 17.27 13.596C18.7167 13.596 19.44 12.9147 19.44 11.552V10.978C19.2067 11.2767 18.88 11.5287 18.46 11.734C18.0493 11.93 17.6153 12.028 17.158 12.028C16.4767 12.028 15.8653 11.8693 15.324 11.552C14.792 11.2253 14.372 10.782 14.064 10.222C13.756 9.65267 13.602 9.004 13.602 8.276C13.602 7.53867 13.7513 6.88067 14.05 6.302C14.358 5.72333 14.778 5.27067 15.31 4.944C15.842 4.61733 16.4393 4.454 17.102 4.454C17.5967 4.454 18.054 4.55667 18.474 4.762C18.9033 4.958 19.244 5.196 19.496 5.476L19.524 4.608H21.358V11.454C21.358 12.658 21.008 13.5867 20.308 14.24C19.6173 14.8933 18.6607 15.22 17.438 15.22ZM17.494 10.46C18.1007 10.46 18.586 10.2593 18.95 9.858C19.3233 9.45667 19.51 8.934 19.51 8.29C19.51 7.63667 19.3233 7.10933 18.95 6.708C18.5767 6.29733 18.0913 6.092 17.494 6.092C16.906 6.092 16.4253 6.29733 16.052 6.708C15.688 7.11867 15.506 7.646 15.506 8.29C15.506 8.934 15.688 9.45667 16.052 9.858C16.4253 10.2593 16.906 10.46 17.494 10.46ZM23.3338 12V4.608H25.1818L25.2098 5.602C25.4618 5.266 25.7978 4.99067 26.2178 4.776C26.6378 4.56133 27.0765 4.454 27.5338 4.454C29.2325 4.454 30.0818 5.462 30.0818 7.478V12H28.1778V7.618C28.1778 6.56333 27.7345 6.05467 26.8478 6.092C26.3905 6.092 26.0078 6.232 25.6998 6.512C25.4012 6.792 25.2518 7.13733 25.2518 7.548V12H23.3338ZM40.5104 12.084C39.7264 12.084 39.0264 11.9207 38.4104 11.594C37.7944 11.258 37.3091 10.8007 36.9544 10.222C36.5998 9.64333 36.4224 8.98067 36.4224 8.234V2.186H38.4524V8.108C38.4524 8.51867 38.5458 8.88733 38.7324 9.214C38.9191 9.53133 39.1664 9.78333 39.4744 9.97C39.7918 10.1567 40.1371 10.25 40.5104 10.25C40.9118 10.25 41.2711 10.1567 41.5884 9.97C41.9151 9.78333 42.1718 9.53133 42.3584 9.214C42.5544 8.88733 42.6524 8.51867 42.6524 8.108V2.186H44.5984V8.234C44.5984 8.98067 44.4211 9.64333 44.0664 10.222C43.7211 10.8007 43.2404 11.258 42.6244 11.594C42.0084 11.9207 41.3038 12.084 40.5104 12.084ZM46.7948 15.08V4.608H48.6428L48.6708 5.504C48.9134 5.20533 49.2448 4.958 49.6648 4.762C50.0848 4.566 50.5281 4.468 50.9948 4.468C51.6388 4.468 52.2128 4.63133 52.7168 4.958C53.2208 5.28467 53.6174 5.73733 53.9068 6.316C54.1961 6.89467 54.3408 7.55267 54.3408 8.29C54.3408 9.02733 54.1961 9.68533 53.9068 10.264C53.6174 10.8427 53.2208 11.3 52.7168 11.636C52.2128 11.9627 51.6388 12.126 50.9948 12.126C50.5561 12.126 50.1314 12.0373 49.7208 11.86C49.3101 11.6733 48.9788 11.44 48.7268 11.16V15.08H46.7948ZM50.5748 10.474C51.1441 10.474 51.6061 10.2733 51.9608 9.872C52.3154 9.46133 52.4928 8.934 52.4928 8.29C52.4928 7.65533 52.3154 7.13733 51.9608 6.736C51.6061 6.32533 51.1441 6.12 50.5748 6.12C50.0054 6.12 49.5434 6.32067 49.1888 6.722C48.8341 7.12333 48.6568 7.646 48.6568 8.29C48.6568 8.934 48.8341 9.46133 49.1888 9.872C49.5434 10.2733 50.0054 10.474 50.5748 10.474ZM56.2232 8.514C56.1112 7.646 56.0132 6.74533 55.9292 5.812C55.8452 4.86933 55.8032 3.98267 55.8032 3.152V2.102H57.8052V3.152C57.8052 4.01067 57.7632 4.916 57.6792 5.868C57.5952 6.81067 57.4972 7.69267 57.3852 8.514H56.2232ZM56.7832 12.154C56.4286 12.154 56.1532 12.056 55.9572 11.86C55.7706 11.6547 55.6772 11.3653 55.6772 10.992C55.6772 10.6467 55.7799 10.3667 55.9852 10.152C56.1906 9.928 56.4566 9.816 56.7832 9.816C57.1379 9.816 57.4086 9.91867 57.5952 10.124C57.7912 10.3293 57.8892 10.6187 57.8892 10.992C57.8892 11.328 57.7866 11.608 57.5812 11.832C57.3759 12.0467 57.1099 12.154 56.7832 12.154Z" fill="#047857"/>
</svg>
